<svg xmlns="http://www.w3.org/2000/svg" xmlns:xlink="http://www.w3.org/1999/xlink" width="500" zoomAndPan="magnify" viewBox="0 0 375 374.999991" height="500" preserveAspectRatio="xMidYMid meet" version="1.0"><defs><g/><clipPath id="9405e1670c"><path d="M 27.082031 3.113281 L 69 3.113281 L 69 66 L 27.082031 66 Z M 27.082031 3.113281 " clip-rule="nonzero"/></clipPath><clipPath id="fbe572dd9b"><path d="M 37.5 3.113281 C 49.832031 3.113281 60.992188 10.414062 65.925781 21.714844 C 70.859375 33.015625 68.632812 46.167969 60.25 55.210938 C 51.871094 64.253906 38.929688 67.476562 27.285156 63.417969 L 32.390625 48.773438 C 38.214844 50.804688 44.683594 49.191406 48.875 44.671875 C 53.066406 40.148438 54.179688 33.574219 51.710938 27.921875 C 49.246094 22.273438 43.664062 18.621094 37.5 18.621094 Z M 37.5 3.113281 " clip-rule="nonzero"/></clipPath><clipPath id="d22ebe3681"><path d="M 6 19.832031 L 33.136719 19.832031 L 33.136719 63.933594 L 6 63.933594 Z M 6 19.832031 " clip-rule="nonzero"/></clipPath><clipPath id="94128bb9d7"><path d="M 28.761719 63.890625 C 19.871094 61.277344 12.609375 54.828125 8.972656 46.304688 C 5.335938 37.78125 5.699219 28.078125 9.964844 19.851562 L 23.734375 26.988281 C 21.597656 31.101562 21.417969 35.953125 23.234375 40.21875 C 25.054688 44.480469 28.683594 47.703125 33.128906 49.007812 Z M 28.761719 63.890625 " clip-rule="nonzero"/></clipPath><clipPath id="77c4f052c0"><path d="M 9.148438 3.113281 L 37.5 3.113281 L 37.5 27.828125 L 9.148438 27.828125 Z M 9.148438 3.113281 " clip-rule="nonzero"/></clipPath><clipPath id="3bb55523e6"><path d="M 9.285156 21.242188 C 14.328125 10.199219 25.355469 3.113281 37.496094 3.113281 L 37.5 18.621094 C 31.425781 18.621094 25.914062 22.164062 23.394531 27.6875 Z M 9.285156 21.242188 " clip-rule="nonzero"/></clipPath></defs><g clip-path="url(#9405e1670c)"><g clip-path="url(#fbe572dd9b)"><path fill="#0cc0df" d="M 6.484375 3.113281 L 68.515625 3.113281 L 68.515625 65.144531 L 6.484375 65.144531 Z M 6.484375 3.113281 " fill-opacity="1" fill-rule="nonzero"/></g></g><g clip-path="url(#d22ebe3681)"><g clip-path="url(#94128bb9d7)"><path fill="#0092c8" d="M 6.484375 3.113281 L 68.515625 3.113281 L 68.515625 65.144531 L 6.484375 65.144531 Z M 6.484375 3.113281 " fill-opacity="1" fill-rule="nonzero"/></g></g><g clip-path="url(#77c4f052c0)"><g clip-path="url(#3bb55523e6)"><path fill="#1665a7" d="M 6.484375 3.113281 L 68.515625 3.113281 L 68.515625 65.144531 L 6.484375 65.144531 Z M 6.484375 3.113281 " fill-opacity="1" fill-rule="nonzero"/></g></g><g fill="#ffffff" fill-opacity="1"><g transform="translate(83.993392, 53.294654)"><g><path d="M 4.257812 0 L 26.011719 0 L 26.011719 -5.800781 L 11.179688 -5.800781 L 11.179688 -15.066406 L 23.347656 -15.066406 L 23.347656 -20.867188 L 11.179688 -20.867188 L 11.179688 -28.867188 L 25.496094 -28.867188 L 25.496094 -34.621094 L 4.257812 -34.621094 Z M 4.257812 0 "/></g></g></g><g fill="#ffffff" fill-opacity="1"><g transform="translate(112.763894, 53.294654)"><g><path d="M 19.554688 10.058594 L 26.433594 10.058594 L 26.433594 -26.199219 L 21.054688 -26.199219 L 20.492188 -23.625 L 20.304688 -23.625 C 18.199219 -25.824219 16.09375 -26.855469 13.195312 -26.855469 C 7.53125 -26.855469 2.199219 -21.613281 2.199219 -13.054688 C 2.199219 -4.492188 6.410156 0.65625 12.914062 0.65625 C 15.484375 0.65625 18.058594 -0.65625 19.835938 -2.480469 L 19.554688 1.730469 Z M 14.691406 -5.007812 C 11.226562 -5.007812 9.261719 -7.71875 9.261719 -13.148438 C 9.261719 -18.386719 11.742188 -21.195312 14.691406 -21.195312 C 16.328125 -21.195312 17.964844 -20.679688 19.554688 -19.230469 L 19.554688 -7.71875 C 18.058594 -5.753906 16.515625 -5.007812 14.691406 -5.007812 Z M 14.691406 -5.007812 "/></g></g></g><g fill="#ffffff" fill-opacity="1"><g transform="translate(142.891047, 53.294654)"><g><path d="M 11.460938 0.65625 C 15.066406 0.65625 17.589844 -1.074219 19.835938 -3.742188 L 20.023438 -3.742188 L 20.539062 0 L 26.152344 0 L 26.152344 -26.199219 L 19.277344 -26.199219 L 19.277344 -8.515625 C 17.496094 -6.175781 16.09375 -5.238281 13.941406 -5.238281 C 11.414062 -5.238281 10.292969 -6.644531 10.292969 -10.714844 L 10.292969 -26.199219 L 3.414062 -26.199219 L 3.414062 -9.824219 C 3.414062 -3.273438 5.847656 0.65625 11.460938 0.65625 Z M 11.460938 0.65625 "/></g></g></g><g fill="#ffffff" fill-opacity="1"><g transform="translate(172.690739, 53.294654)"><g><path d="M 3.695312 0 L 10.527344 0 L 10.527344 -26.199219 L 3.695312 -26.199219 Z M 7.15625 -30.410156 C 9.496094 -30.410156 11.226562 -32 11.226562 -34.152344 C 11.226562 -36.398438 9.496094 -37.894531 7.15625 -37.894531 C 4.773438 -37.894531 3.042969 -36.398438 3.042969 -34.152344 C 3.042969 -32 4.773438 -30.410156 7.15625 -30.410156 Z M 7.15625 -30.410156 "/></g></g></g><g fill="#ffffff" fill-opacity="1"><g transform="translate(186.912254, 53.294654)"><g><path d="M 13.285156 0.65625 C 15.578125 0.65625 17.402344 0.140625 18.808594 -0.328125 L 17.683594 -5.332031 C 16.984375 -5.054688 15.953125 -4.773438 15.113281 -4.773438 C 12.773438 -4.773438 11.554688 -6.175781 11.554688 -9.167969 L 11.554688 -20.773438 L 18.011719 -20.773438 L 18.011719 -26.199219 L 11.554688 -26.199219 L 11.554688 -33.21875 L 5.800781 -33.21875 L 5.007812 -26.199219 L 0.984375 -25.871094 L 0.984375 -20.773438 L 4.679688 -20.773438 L 4.679688 -9.167969 C 4.679688 -3.273438 7.066406 0.65625 13.285156 0.65625 Z M 13.285156 0.65625 "/></g></g></g><g fill="#ffffff" fill-opacity="1"><g transform="translate(206.560396, 53.294654)"><g><path d="M 5.988281 10.527344 C 11.835938 10.527344 14.644531 6.972656 16.9375 0.796875 L 26.246094 -26.199219 L 19.648438 -26.199219 L 16.046875 -14.035156 C 15.4375 -11.601562 14.785156 -9.078125 14.175781 -6.644531 L 13.941406 -6.644531 C 13.195312 -9.167969 12.539062 -11.695312 11.742188 -14.035156 L 7.578125 -26.199219 L 0.65625 -26.199219 L 10.855469 -0.46875 L 10.386719 1.074219 C 9.636719 3.367188 8.140625 5.054688 5.472656 5.054688 C 4.867188 5.054688 4.117188 4.867188 3.648438 4.726562 L 2.386719 10.011719 C 3.414062 10.339844 4.445312 10.527344 5.988281 10.527344 Z M 5.988281 10.527344 "/></g></g></g></svg>