<svg xmlns="http://www.w3.org/2000/svg" xmlns:xlink="http://www.w3.org/1999/xlink" width="500" zoomAndPan="magnify" viewBox="0 0 375 374.999991" height="500" preserveAspectRatio="xMidYMid meet" version="1.0"><defs><g/><clipPath id="7bbdb59f8a"><path d="M 27.082031 6.484375 L 69 6.484375 L 69 69 L 27.082031 69 Z M 27.082031 6.484375 " clip-rule="nonzero"/></clipPath><clipPath id="5dbc88a2fd"><path d="M 37.5 6.484375 C 49.832031 6.484375 60.992188 13.785156 65.925781 25.085938 C 70.859375 36.386719 68.632812 49.539062 60.25 58.582031 C 51.871094 67.625 38.929688 70.847656 27.285156 66.785156 L 32.390625 52.144531 C 38.214844 54.175781 44.683594 52.5625 48.875 48.039062 C 53.066406 43.519531 54.179688 36.945312 51.710938 31.292969 C 49.246094 25.644531 43.664062 21.992188 37.5 21.992188 Z M 37.5 6.484375 " clip-rule="nonzero"/></clipPath><clipPath id="8cfca99eda"><path d="M 6 23.203125 L 33.136719 23.203125 L 33.136719 67.304688 L 6 67.304688 Z M 6 23.203125 " clip-rule="nonzero"/></clipPath><clipPath id="846532a5ab"><path d="M 28.761719 67.261719 C 19.871094 64.648438 12.609375 58.199219 8.972656 49.675781 C 5.335938 41.152344 5.699219 31.449219 9.964844 23.222656 L 23.734375 30.359375 C 21.597656 34.472656 21.417969 39.324219 23.234375 43.585938 C 25.054688 47.851562 28.683594 51.074219 33.128906 52.378906 Z M 28.761719 67.261719 " clip-rule="nonzero"/></clipPath><clipPath id="24b20b25b4"><path d="M 9.148438 6.484375 L 37.5 6.484375 L 37.5 31.199219 L 9.148438 31.199219 Z M 9.148438 6.484375 " clip-rule="nonzero"/></clipPath><clipPath id="4504e4dfb7"><path d="M 9.285156 24.613281 C 14.328125 13.570312 25.355469 6.484375 37.496094 6.484375 L 37.5 21.992188 C 31.425781 21.992188 25.914062 25.535156 23.394531 31.058594 Z M 9.285156 24.613281 " clip-rule="nonzero"/></clipPath></defs><g clip-path="url(#7bbdb59f8a)"><g clip-path="url(#5dbc88a2fd)"><path fill="#0cc0df" d="M 6.484375 6.484375 L 68.515625 6.484375 L 68.515625 68.515625 L 6.484375 68.515625 Z M 6.484375 6.484375 " fill-opacity="1" fill-rule="nonzero"/></g></g><g clip-path="url(#8cfca99eda)"><g clip-path="url(#846532a5ab)"><path fill="#0092c8" d="M 6.484375 6.484375 L 68.515625 6.484375 L 68.515625 68.515625 L 6.484375 68.515625 Z M 6.484375 6.484375 " fill-opacity="1" fill-rule="nonzero"/></g></g><g clip-path="url(#24b20b25b4)"><g clip-path="url(#4504e4dfb7)"><path fill="#1665a7" d="M 6.484375 6.484375 L 68.515625 6.484375 L 68.515625 68.515625 L 6.484375 68.515625 Z M 6.484375 6.484375 " fill-opacity="1" fill-rule="nonzero"/></g></g><g fill="#070907" fill-opacity="1"><g transform="translate(83.993392, 53.294654)"><g><path d="M 4.257812 0 L 26.011719 0 L 26.011719 -5.800781 L 11.179688 -5.800781 L 11.179688 -15.066406 L 23.347656 -15.066406 L 23.347656 -20.867188 L 11.179688 -20.867188 L 11.179688 -28.867188 L 25.496094 -28.867188 L 25.496094 -34.621094 L 4.257812 -34.621094 Z M 4.257812 0 "/></g></g></g><g fill="#070907" fill-opacity="1"><g transform="translate(112.763894, 53.294654)"><g><path d="M 19.554688 10.058594 L 26.433594 10.058594 L 26.433594 -26.199219 L 21.054688 -26.199219 L 20.492188 -23.625 L 20.304688 -23.625 C 18.199219 -25.824219 16.09375 -26.855469 13.195312 -26.855469 C 7.53125 -26.855469 2.199219 -21.613281 2.199219 -13.054688 C 2.199219 -4.492188 6.410156 0.65625 12.914062 0.65625 C 15.484375 0.65625 18.058594 -0.65625 19.835938 -2.480469 L 19.554688 1.730469 Z M 14.691406 -5.007812 C 11.226562 -5.007812 9.261719 -7.71875 9.261719 -13.148438 C 9.261719 -18.386719 11.742188 -21.195312 14.691406 -21.195312 C 16.328125 -21.195312 17.964844 -20.679688 19.554688 -19.230469 L 19.554688 -7.71875 C 18.058594 -5.753906 16.515625 -5.007812 14.691406 -5.007812 Z M 14.691406 -5.007812 "/></g></g></g><g fill="#070907" fill-opacity="1"><g transform="translate(142.891047, 53.294654)"><g><path d="M 11.460938 0.65625 C 15.066406 0.65625 17.589844 -1.074219 19.835938 -3.742188 L 20.023438 -3.742188 L 20.539062 0 L 26.152344 0 L 26.152344 -26.199219 L 19.277344 -26.199219 L 19.277344 -8.515625 C 17.496094 -6.175781 16.09375 -5.238281 13.941406 -5.238281 C 11.414062 -5.238281 10.292969 -6.644531 10.292969 -10.714844 L 10.292969 -26.199219 L 3.414062 -26.199219 L 3.414062 -9.824219 C 3.414062 -3.273438 5.847656 0.65625 11.460938 0.65625 Z M 11.460938 0.65625 "/></g></g></g><g fill="#070907" fill-opacity="1"><g transform="translate(172.690739, 53.294654)"><g><path d="M 3.695312 0 L 10.527344 0 L 10.527344 -26.199219 L 3.695312 -26.199219 Z M 7.15625 -30.410156 C 9.496094 -30.410156 11.226562 -32 11.226562 -34.152344 C 11.226562 -36.398438 9.496094 -37.894531 7.15625 -37.894531 C 4.773438 -37.894531 3.042969 -36.398438 3.042969 -34.152344 C 3.042969 -32 4.773438 -30.410156 7.15625 -30.410156 Z M 7.15625 -30.410156 "/></g></g></g><g fill="#070907" fill-opacity="1"><g transform="translate(186.912254, 53.294654)"><g><path d="M 13.285156 0.65625 C 15.578125 0.65625 17.402344 0.140625 18.808594 -0.328125 L 17.683594 -5.332031 C 16.984375 -5.054688 15.953125 -4.773438 15.113281 -4.773438 C 12.773438 -4.773438 11.554688 -6.175781 11.554688 -9.167969 L 11.554688 -20.773438 L 18.011719 -20.773438 L 18.011719 -26.199219 L 11.554688 -26.199219 L 11.554688 -33.21875 L 5.800781 -33.21875 L 5.007812 -26.199219 L 0.984375 -25.871094 L 0.984375 -20.773438 L 4.679688 -20.773438 L 4.679688 -9.167969 C 4.679688 -3.273438 7.066406 0.65625 13.285156 0.65625 Z M 13.285156 0.65625 "/></g></g></g><g fill="#070907" fill-opacity="1"><g transform="translate(206.560396, 53.294654)"><g><path d="M 5.988281 10.527344 C 11.835938 10.527344 14.644531 6.972656 16.9375 0.796875 L 26.246094 -26.199219 L 19.648438 -26.199219 L 16.046875 -14.035156 C 15.4375 -11.601562 14.785156 -9.078125 14.175781 -6.644531 L 13.941406 -6.644531 C 13.195312 -9.167969 12.539062 -11.695312 11.742188 -14.035156 L 7.578125 -26.199219 L 0.65625 -26.199219 L 10.855469 -0.46875 L 10.386719 1.074219 C 9.636719 3.367188 8.140625 5.054688 5.472656 5.054688 C 4.867188 5.054688 4.117188 4.867188 3.648438 4.726562 L 2.386719 10.011719 C 3.414062 10.339844 4.445312 10.527344 5.988281 10.527344 Z M 5.988281 10.527344 "/></g></g></g></svg>